<?xml version="1.0" standalone="no"?><!DOCTYPE svg PUBLIC "-//W3C//DTD SVG 1.1//EN" "http://www.w3.org/Graphics/SVG/1.1/DTD/svg11.dtd"><svg t="1653027666309" class="icon" viewBox="0 0 1024 1024" version="1.1" xmlns="http://www.w3.org/2000/svg" p-id="3812" width="32" height="32" xmlns:xlink="http://www.w3.org/1999/xlink"><defs><style type="text/css"></style></defs><path d="M437.76 525.44A209.28 209.28 0 1 0 200.32 320a208.96 208.96 0 0 0 172.48 206.72C137.28 544 67.2 784.32 64 914.24l64 1.6c0-13.44 12.16-328.64 273.28-328.64s283.52 316.16 284.16 329.6l64-3.52c-7.04-128.32-82.56-364.8-311.68-387.84zM264.32 320a142.72 142.72 0 1 1 142.4 145.6A144.32 144.32 0 0 1 264.32 320z" p-id="3813" fill="#909399"></path><path d="M704 550.72l-15.68 61.76c80.32 20.48 201.92 118.4 207.68 304l64-1.92c-6.08-197.76-133.44-332.8-256-363.84zM826.56 388.16A195.52 195.52 0 0 0 704 166.72l-25.6 59.2a130.56 130.56 0 0 1 85.44 149.12 96 96 0 0 1-104.32 80.96l-1.92 64h5.76a160 160 0 0 0 163.2-131.84z" p-id="3814" fill="#909399"></path></svg>